# xmcd
#
# Track frame offsets: 
#        150
#        21709
#        46141
#        71122
#        93619
#        111438
#        134275
#        156441
#        188207
#        205198
#
# Disc length: 2973 seconds
#
# Revision: 0
# Processed by: cddbd v1.5.1PL0 Copyright (c) Steve Scherf et al.
# Submitted via: ExactAudioCopy v0.95a4
#
DISCID=980b9b0a
DTITLE=ZVA 12-28 - Neviem to vydrzat
DYEAR=2000
DGENRE=Blues
TTITLE0=Neviem to vydrzat
TTITLE1=Vela fajcim
TTITLE2=170 na 120
TTITLE3=Blues prepoteneho tricka
TTITLE4=Sam
TTITLE5=K svojej zene?
TTITLE6=Pre Vandu
TTITLE7=Mojo Bastard
TTITLE8=My love for you (Buddy Guy)
TTITLE9=Ach, to je baba
EXTD=
EXTT0=
EXTT1=
EXTT2=
EXTT3=
EXTT4=
EXTT5=
EXTT6=
EXTT7=
EXTT8=
EXTT9=
PLAYORDER=
